<svg xmlns="http://www.w3.org/2000/svg" width="64.621" height="60.329" viewBox="0 0 64.621 60.329"><g transform="translate(-713.939 -332.092)"><g transform="translate(726.347 333.803)"><path d="M16.5,0,33,39H0Z" transform="translate(-0.347 4.197)" fill="#7ca97d" opacity="0.3"/><ellipse cx="2.5" cy="2" rx="2.5" ry="2" transform="translate(13.653 0.197)" fill="#52a854" opacity="0.3"/><path d="M-2.773,0h1.651l.648,9.584H-3.4Z" transform="translate(19.027 43.319)" fill="#be5c07"/><circle cx="1" cy="1" r="1" transform="translate(8.653 25.197)" fill="#52a854" opacity="0.53"/><circle cx="1" cy="1" r="1" transform="translate(15.653 16.197)" fill="#52a854" opacity="0.53"/><circle cx="1" cy="1" r="1" transform="translate(15.653 29.197)" fill="#52a854" opacity="0.53"/><circle cx="1" cy="1" r="1" transform="translate(18.653 21.197)" fill="#52a854" opacity="0.53"/><circle cx="1" cy="1" r="1" transform="translate(7.653 35.197)" fill="#52a854" opacity="0.53"/><circle cx="1" cy="1" r="1" transform="translate(23.653 37.197)" fill="#52a854" opacity="0.53"/></g><g transform="matrix(0.999, 0.035, -0.035, 0.999, 715.45, 338.903)"><path d="M16.133,0,32.266,38.719H0Z" transform="translate(0 4.571)" fill="#7ca97d" opacity="0.3"/><circle cx="2.285" cy="2.285" r="2.285" transform="translate(13.982 0)" fill="#52a854" opacity="0.3"/><path d="M.623,0H2.274l.648,9.584H0Z" transform="translate(15.631 43.319)" fill="#be5c07"/><circle cx="0.941" cy="0.941" r="0.941" transform="translate(8.873 25.275)" fill="#52a854" opacity="0.53"/><circle cx="0.941" cy="0.941" r="0.941" transform="translate(15.595 16.133)" fill="#52a854" opacity="0.53"/><circle cx="0.941" cy="0.941" r="0.941" transform="translate(15.595 29.308)" fill="#52a854" opacity="0.53"/><circle cx="0.941" cy="0.941" r="0.941" transform="translate(18.553 20.973)" fill="#52a854" opacity="0.53"/><circle cx="0.941" cy="0.941" r="0.941" transform="translate(7.529 35.492)" fill="#52a854" opacity="0.53"/><circle cx="0.941" cy="0.941" r="0.941" transform="translate(23.93 37.374)" fill="#52a854" opacity="0.53"/></g><g transform="translate(741.259 334.353) rotate(-7)"><path d="M16.133,0,32.266,38.719H0Z" transform="translate(0 4.571)" fill="#7ca97d" opacity="0.3"/><circle cx="2.285" cy="2.285" r="2.285" transform="translate(13.982 0)" fill="#52a854" opacity="0.3"/><path d="M.623,0H2.274l.648,9.584H0Z" transform="translate(15.631 43.319)" fill="#be5c07"/><circle cx="0.941" cy="0.941" r="0.941" transform="translate(8.873 25.275)" fill="#52a854" opacity="0.53"/><circle cx="0.941" cy="0.941" r="0.941" transform="translate(15.595 16.133)" fill="#52a854" opacity="0.53"/><circle cx="0.941" cy="0.941" r="0.941" transform="translate(15.595 29.308)" fill="#52a854" opacity="0.53"/><circle cx="0.941" cy="0.941" r="0.941" transform="translate(18.553 20.973)" fill="#52a854" opacity="0.53"/><circle cx="0.941" cy="0.941" r="0.941" transform="translate(7.529 35.492)" fill="#52a854" opacity="0.53"/><circle cx="0.941" cy="0.941" r="0.941" transform="translate(23.93 37.374)" fill="#52a854" opacity="0.53"/></g></g></svg>