<svg xmlns="http://www.w3.org/2000/svg" width="240.333" height="224.373" viewBox="0 0 240.333 224.373"><g transform="translate(-714.851 -336.636)"><g transform="translate(17 -468)"><path d="M60,0l60,144H0Z" transform="translate(744 828)" fill="#7ca97d" opacity="0.3"/><circle cx="8.5" cy="8.5" r="8.5" transform="translate(796 811)" fill="#52a854" opacity="0.3"/><path d="M-1.079,0H5.062L7.471,35.646H-3.4Z" transform="translate(805.529 972.109)" fill="#be5c07"/><circle cx="3.5" cy="3.5" r="3.5" transform="translate(777 905)" fill="#52a854" opacity="0.53"/><circle cx="3.5" cy="3.5" r="3.5" transform="translate(802 871)" fill="#52a854" opacity="0.53"/><circle cx="3.5" cy="3.5" r="3.5" transform="translate(802 920)" fill="#52a854" opacity="0.53"/><circle cx="3.5" cy="3.5" r="3.5" transform="translate(813 889)" fill="#52a854" opacity="0.53"/><circle cx="3.5" cy="3.5" r="3.5" transform="translate(772 943)" fill="#52a854" opacity="0.53"/><circle cx="3.5" cy="3.5" r="3.5" transform="translate(833 950)" fill="#52a854" opacity="0.53"/></g><g transform="matrix(0.999, 0.035, -0.035, 0.999, 5.227, -474.505)"><path d="M60,0l60,144H0Z" transform="translate(744 828)" fill="#7ca97d" opacity="0.3"/><circle cx="8.5" cy="8.5" r="8.5" transform="translate(796 811)" fill="#52a854" opacity="0.3"/><path d="M-1.079,0H5.062L7.471,35.646H-3.4Z" transform="translate(805.529 972.109)" fill="#be5c07"/><circle cx="3.5" cy="3.5" r="3.5" transform="translate(777 905)" fill="#52a854" opacity="0.53"/><circle cx="3.5" cy="3.5" r="3.5" transform="translate(802 871)" fill="#52a854" opacity="0.53"/><circle cx="3.5" cy="3.5" r="3.5" transform="translate(802 920)" fill="#52a854" opacity="0.53"/><circle cx="3.5" cy="3.5" r="3.5" transform="translate(813 889)" fill="#52a854" opacity="0.53"/><circle cx="3.5" cy="3.5" r="3.5" transform="translate(772 943)" fill="#52a854" opacity="0.53"/><circle cx="3.5" cy="3.5" r="3.5" transform="translate(833 950)" fill="#52a854" opacity="0.53"/></g><g transform="translate(-20.832 -369.239) rotate(-7)"><path d="M60,0l60,144H0Z" transform="translate(744 828)" fill="#7ca97d" opacity="0.3"/><circle cx="8.5" cy="8.5" r="8.5" transform="translate(796 811)" fill="#52a854" opacity="0.3"/><path d="M-1.079,0H5.062L7.471,35.646H-3.4Z" transform="translate(805.529 972.109)" fill="#be5c07"/><circle cx="3.5" cy="3.5" r="3.5" transform="translate(777 905)" fill="#52a854" opacity="0.53"/><circle cx="3.5" cy="3.5" r="3.5" transform="translate(802 871)" fill="#52a854" opacity="0.53"/><circle cx="3.5" cy="3.5" r="3.5" transform="translate(802 920)" fill="#52a854" opacity="0.53"/><circle cx="3.5" cy="3.5" r="3.5" transform="translate(813 889)" fill="#52a854" opacity="0.53"/><circle cx="3.5" cy="3.5" r="3.5" transform="translate(772 943)" fill="#52a854" opacity="0.53"/><circle cx="3.5" cy="3.5" r="3.5" transform="translate(833 950)" fill="#52a854" opacity="0.53"/></g></g></svg>