<svg xmlns="http://www.w3.org/2000/svg" width="191.348" height="59" viewBox="0 0 191.348 59"><g transform="translate(-183.652 -24)"><path d="M41.172,14.9a1.518,1.518,0,0,1-.72-1.3,14.966,14.966,0,0,0-29.806,0,1.524,1.524,0,0,1-.718,1.3A15,15,0,0,0,14.7,41.665,4.093,4.093,0,0,0,17.3,41.8c.866-.43,1.737-4.187,1.3-5.058a4.925,4.925,0,0,0-2.318-1.157,8.848,8.848,0,0,1-6.51-8.53A8.7,8.7,0,0,1,12.1,21.116a8.133,8.133,0,0,1,2.167-1.73A5.122,5.122,0,0,0,16.87,14.9a8.322,8.322,0,0,1,.432-2.745,8.831,8.831,0,0,1,16.782,0,8.322,8.322,0,0,1,.432,2.745,4.82,4.82,0,0,0,2.61,4.464,6.078,6.078,0,0,1,2.162,1.719,8.632,8.632,0,0,1,2.318,5.938,8.774,8.774,0,0,1-8.823,8.825A10.133,10.133,0,0,0,22.655,45.937V51.7a5.394,5.394,0,0,0,.434,2.61c.72.722,4.485.722,5.207,0a5.018,5.018,0,0,0,.446-2.61V45.8a3.914,3.914,0,0,1,3.915-3.915,14.868,14.868,0,0,0,8.549-27.056l-.034.075Z" transform="translate(180.09 24.458)" fill="#fff"/><text transform="translate(246 60)" fill="#fff" font-size="20" font-family="MontserratAlternates-Regular, Montserrat Alternates"><tspan x="0" y="0">Mas</tspan></text><text transform="translate(290 71)" fill="#52a854" font-size="49" font-family="MontserratAlternates-Bold, Montserrat Alternates" font-weight="700"><tspan x="0" y="0">X</tspan></text><text transform="translate(324 60)" fill="#fff" font-size="20" font-family="MontserratAlternates-Regular, Montserrat Alternates"><tspan x="0" y="0">Chris</tspan></text></g></svg>