<svg xmlns="http://www.w3.org/2000/svg" width="233.772" height="71" viewBox="0 0 233.772 71"><g transform="translate(-183.652 -24)"><path d="M49.593,18.24a1.858,1.858,0,0,1-.881-1.595,18.316,18.316,0,0,0-36.48,0,1.865,1.865,0,0,1-.878,1.595,18.363,18.363,0,0,0,5.838,32.756c1.418.355,2.658.529,3.189.171,1.06-.526,2.126-5.125,1.595-6.191a6.028,6.028,0,0,0-2.837-1.416,10.829,10.829,0,0,1-7.967-10.44,10.654,10.654,0,0,1,2.837-7.274,9.954,9.954,0,0,1,2.652-2.118,6.269,6.269,0,0,0,3.189-5.494,10.186,10.186,0,0,1,.529-3.36,10.809,10.809,0,0,1,20.54,0,10.186,10.186,0,0,1,.529,3.36A5.9,5.9,0,0,0,44.642,23.7a7.439,7.439,0,0,1,2.646,2.1,10.565,10.565,0,0,1,2.837,7.268,10.738,10.738,0,0,1-10.8,10.8,12.4,12.4,0,0,0-12.4,12.354V63.28a6.6,6.6,0,0,0,.532,3.195c.881.884,5.489.884,6.373,0,.38-.38.546-1.765.546-3.195V56.054a4.791,4.791,0,0,1,4.792-4.792A18.2,18.2,0,0,0,49.635,18.148l-.042.092Z" transform="translate(180.09 24.56)" fill="#fff"/><g transform="translate(259.96 24)"><text transform="translate(0 43.806)" fill="#fff" font-size="24" font-family="MontserratAlternates-Regular, Montserrat Alternates"><tspan x="0" y="0">Mas</tspan></text><text transform="translate(53.852 56)" fill="#e53935" font-size="58" font-family="MontserratAlternates-Bold, Montserrat Alternates" font-weight="700"><tspan x="0" y="0">X</tspan></text><text transform="translate(95.465 43.806)" fill="#fff" font-size="24" font-family="MontserratAlternates-Regular, Montserrat Alternates"><tspan x="0" y="0">Chris</tspan></text></g></g></svg>